<svg id="Layer_1" data-name="Layer 1" xmlns="http://www.w3.org/2000/svg" viewBox="0 0 575 105"><defs><style>.cls-1,.cls-2{stroke:#000;stroke-miterlimit:10;}.cls-2{fill:none;stroke-width:5px;}</style></defs><path class="cls-1" d="M55.54,36.65q0,9.8-4.65,15.5a14.93,14.93,0,0,1-12.15,5.7H26.84v25.2a6.53,6.53,0,0,1-1.9,4.75,6.43,6.43,0,0,1-4.8,2,6.43,6.43,0,0,1-4.8-2,6.53,6.53,0,0,1-1.9-4.75V23.45q0-7,7-7h16.9q8.7,0,13.45,4.95T55.54,36.65Zm-14,.6q0-5.4-2.1-8a6.88,6.88,0,0,0-5.7-2.65h-6.9v21.2h6.1a7.78,7.78,0,0,0,6.4-2.7Q41.55,42.35,41.54,37.25Z"/><path class="cls-1" d="M68.24,89.75a6.43,6.43,0,0,1-4.8-2,6.53,6.53,0,0,1-1.9-4.75V21.85a6.53,6.53,0,0,1,1.9-4.75,6.43,6.43,0,0,1,4.8-2A6.53,6.53,0,0,1,73,17.05a6.43,6.43,0,0,1,2,4.8v61.2A6.53,6.53,0,0,1,73,87.8,6.43,6.43,0,0,1,68.24,89.75Z"/><path class="cls-1" d="M127.54,22.35A9.87,9.87,0,0,1,127,25.5,20.56,20.56,0,0,1,125,29.45l-27.3,47h23.8A7.31,7.31,0,0,1,126.39,78a5.49,5.49,0,0,1,1.85,4.45,5.65,5.65,0,0,1-1.75,4.4,7.07,7.07,0,0,1-4.95,1.6H87.64a6.65,6.65,0,0,1-4.75-1.85,5.92,5.92,0,0,1-2-4.45,7.36,7.36,0,0,1,.45-2.6,27,27,0,0,1,1.75-3.5l27.2-47.6h-21a7.27,7.27,0,0,1-4.9-1.55,5.55,5.55,0,0,1-1.8-4.45A5.49,5.49,0,0,1,84.49,18a7.46,7.46,0,0,1,5-1.55h31.1a8.13,8.13,0,0,1,5.15,1.45A5.32,5.32,0,0,1,127.54,22.35Z"/><path class="cls-1" d="M176.94,22.35a9.87,9.87,0,0,1-.55,3.15,20.56,20.56,0,0,1-1.95,3.95l-27.3,47h23.8A7.31,7.31,0,0,1,175.79,78a5.49,5.49,0,0,1,1.85,4.45,5.65,5.65,0,0,1-1.75,4.4,7.07,7.07,0,0,1-4.95,1.6H137a6.65,6.65,0,0,1-4.75-1.85,5.92,5.92,0,0,1-1.95-4.45,7.36,7.36,0,0,1,.45-2.6,27,27,0,0,1,1.75-3.5l27.2-47.6h-21a7.27,7.27,0,0,1-4.9-1.55,5.55,5.55,0,0,1-1.8-4.45A5.49,5.49,0,0,1,133.89,18a7.46,7.46,0,0,1,5-1.55h31.1a8.13,8.13,0,0,1,5.15,1.45A5.32,5.32,0,0,1,176.94,22.35Z"/><path class="cls-1" d="M229.65,83.65a5.72,5.72,0,0,1-1.8,4.5,7.14,7.14,0,0,1-4.9,1.6q-3.6,0-5.3-1.85t-2.6-6.45l-2.2-11h-16.5l-2.8,13.6a7.94,7.94,0,0,1-2.15,4.25,6.61,6.61,0,0,1-4.65,1.45,6.73,6.73,0,0,1-4.7-1.55,5.47,5.47,0,0,1-1.7-4.25,21.07,21.07,0,0,1,.7-5.1l13.1-55.1a15.31,15.31,0,0,1,2.1-5.45,6.42,6.42,0,0,1,3.25-2.5,18.08,18.08,0,0,1,5.45-.65q5.1,0,7.4,2t3.5,7l12.8,54A24.52,24.52,0,0,1,229.65,83.65ZM204.85,30h-.2l-6.1,29.9h12.2Z"/><path class="cls-1" d="M286.94,39.65q-3.3,0-4.8-1.45c-1-1-1.63-2.78-1.9-5.45s-1-4.48-2.15-5.65a7,7,0,0,0-5.15-1.75,7.22,7.22,0,0,0-5.1,1.85,6.55,6.55,0,0,0-2,5.05,9.33,9.33,0,0,0,2,6.15,30.56,30.56,0,0,0,6.45,5.35l7.4,4.8q7.31,4.7,10.15,9.45a22.91,22.91,0,0,1,2.85,12q0,9.8-5.9,15t-16.9,5.2q-7.3,0-11.8-3.35a17.94,17.94,0,0,1-6.25-7.8A22.2,22.2,0,0,1,252,71c0-3.13.57-5.42,1.7-6.85a6.11,6.11,0,0,1,5.1-2.15,5.8,5.8,0,0,1,4.8,2q1.61,2,1.8,6.5a10.72,10.72,0,0,0,2.25,6.75,7.21,7.21,0,0,0,5.75,2.35,7.42,7.42,0,0,0,5.7-2.25,8.66,8.66,0,0,0,2.1-6.15,10.6,10.6,0,0,0-1.4-5.6,17.93,17.93,0,0,0-5.1-4.9l-12.2-8.6a26.1,26.1,0,0,1-7.7-7.75q-2.4-4-2.4-10.75,0-9,6-13.9t15.2-4.9a21.45,21.45,0,0,1,11.15,2.65,16.94,16.94,0,0,1,6.6,6.8,18.62,18.62,0,0,1,2.15,8.65,6.73,6.73,0,0,1-1.8,5A6.58,6.58,0,0,1,286.94,39.65Z"/><path class="cls-1" d="M338.94,83.15a14.94,14.94,0,0,1-6.4,5.3q-3.9,1.69-10.7,1.7t-10.7-1.7a14.94,14.94,0,0,1-6.4-5.3,25.16,25.16,0,0,1-3.65-9.35,66.51,66.51,0,0,1-1.25-13.55V44.65q0-15.6,4.9-22.8a16.06,16.06,0,0,1,6.45-5.35q3.85-1.75,10.65-1.75t10.7,1.75a15.35,15.35,0,0,1,6.4,5.35q4.9,7,4.9,22.8v15.6a66,66,0,0,1-1.25,13.45A26.15,26.15,0,0,1,338.94,83.15Zm-17.1-57.8a6.62,6.62,0,0,0-4.55,1.55c-1.17,1-2,2.93-2.6,5.7a63.27,63.27,0,0,0-.85,11.95v15.8a64.54,64.54,0,0,0,.85,12.2q.85,4.1,2.55,5.55a8,8,0,0,0,9.2,0c1.13-1,2-2.83,2.55-5.6a64.73,64.73,0,0,0,.85-12.15V44.55A63.27,63.27,0,0,0,329,32.6q-.86-4.16-2.55-5.7A6.58,6.58,0,0,0,321.84,25.35Z"/><path class="cls-1" d="M385.74,40.75c-2.4,0-4.09-.55-5.05-1.65s-1.62-3.05-1.95-5.85a11.91,11.91,0,0,0-2.05-6,5.31,5.31,0,0,0-4.35-1.9,6.8,6.8,0,0,0-5.8,2.5q-1.91,2.5-2.55,8a153,153,0,0,0-.65,16.55v3.7a132.44,132.44,0,0,0,.5,13.25,15.64,15.64,0,0,0,2.4,7.45,6.61,6.61,0,0,0,5.8,2.7,6.31,6.31,0,0,0,4.55-2,7.38,7.38,0,0,0,2.15-5.15c.13-3.93.65-6.77,1.55-8.5s2.61-2.6,5.15-2.6q7.29,0,7.3,8,0,10.2-5.5,15.55t-16.3,5.35q-7.6,0-12.4-3a17.24,17.24,0,0,1-7.05-9.3q-2.16-6.19-2.15-18.1V48q0-11.81,2-18.9t6.95-10.7q5-3.6,14-3.6,9.5,0,14.95,5a16.84,16.84,0,0,1,5.45,13Q392.64,40.74,385.74,40.75Z"/><path class="cls-1" d="M405.74,89.75a6.4,6.4,0,0,1-4.8-2,6.53,6.53,0,0,1-1.9-4.75V21.85a6.53,6.53,0,0,1,1.9-4.75,6.4,6.4,0,0,1,4.8-2,6.55,6.55,0,0,1,4.75,1.9,6.43,6.43,0,0,1,1.95,4.8v61.2a6.57,6.57,0,0,1-1.9,4.75A6.43,6.43,0,0,1,405.74,89.75Z"/><path class="cls-1" d="M462,22.45a5.69,5.69,0,0,1-1.75,4.4,7.22,7.22,0,0,1-5.05,1.6h-20.1v16.6h18.8a7.5,7.5,0,0,1,4.95,1.55,5.49,5.49,0,0,1,1.85,4.45,5.69,5.69,0,0,1-1.75,4.4,7.22,7.22,0,0,1-5.05,1.6h-18.8v19.4h20.6A7.82,7.82,0,0,1,460.89,78a5.49,5.49,0,0,1,1.85,4.45,5.69,5.69,0,0,1-1.75,4.4,7.07,7.07,0,0,1-4.95,1.6h-27.4a6.15,6.15,0,0,1-6.9-6.9V23.35q0-6.9,6.9-6.9h26.6a7.26,7.26,0,0,1,5,1.6A5.58,5.58,0,0,1,462,22.45Z"/><path class="cls-1" d="M513.94,22.45a5.69,5.69,0,0,1-1.75,4.4,7.07,7.07,0,0,1-5,1.6h-10.9V83a6.71,6.71,0,0,1-1.9,4.85,6.88,6.88,0,0,1-9.6,0,6.53,6.53,0,0,1-1.9-4.75V28.45H472a7.27,7.27,0,0,1-4.9-1.55,5.55,5.55,0,0,1-1.8-4.45,5.55,5.55,0,0,1,1.8-4.45,7.27,7.27,0,0,1,4.9-1.55h35.1a7.26,7.26,0,0,1,5,1.6A5.58,5.58,0,0,1,513.94,22.45Z"/><path class="cls-1" d="M555.05,15.15a6.76,6.76,0,0,1,4.5,1.6,4.82,4.82,0,0,1,1.9,3.8,9.44,9.44,0,0,1-.9,3.9l-14.8,33.7V83a6.67,6.67,0,0,1-1.9,4.85,6.43,6.43,0,0,1-4.8,2,6.36,6.36,0,0,1-4.8-2,6.7,6.7,0,0,1-1.9-4.8V58.85l-14.2-32a14.43,14.43,0,0,1-1.6-5.6,5.72,5.72,0,0,1,1.8-4.5,7.09,7.09,0,0,1,4.9-1.6,6.53,6.53,0,0,1,4.25,1.2q1.46,1.2,2.85,4.9l8.7,23,9.2-24a9,9,0,0,1,2.6-3.95A6.74,6.74,0,0,1,555.05,15.15Z"/><rect class="cls-2" x="2.5" y="2.5" width="570" height="100"/></svg>